<svg width="184" height="180" viewBox="0 0 184 180" fill="none" xmlns="http://www.w3.org/2000/svg">
<circle cx="62" cy="99" r="62" fill="#FFC266"/>
<circle cx="41" cy="94" r="7" fill="black"/>
<circle cx="83" cy="94" r="7" fill="black"/>
<path d="M50 121C50 120.47 51.2643 119.961 53.5147 119.586C55.7652 119.211 58.8174 119 62 119C65.1826 119 68.2348 119.211 70.4853 119.586C72.7357 119.961 74 120.47 74 121" stroke="#F78600" stroke-width="6" stroke-linecap="round"/>
<path d="M73.0353 77.0043C74.2974 73.4719 80.4452 67.567 88.4901 72.8632" stroke="#A75D05" stroke-width="6" stroke-linecap="round"/>
<path d="M34 79H50" stroke="#A75D05" stroke-width="6" stroke-linecap="round"/>
<path fill-rule="evenodd" clip-rule="evenodd" d="M55.2592 129.469C56.5973 131.764 55.8216 134.71 53.5264 136.048L49.1367 138.607C51.1256 138.115 53.2812 138.962 54.3654 140.822C55.5425 142.84 55.0586 145.37 53.3311 146.827C54.4305 147.163 55.411 147.898 56.0358 148.97C57.1079 150.809 56.8022 153.071 55.4338 154.561C56.3247 154.949 57.1046 155.613 57.6315 156.517C58.9493 158.777 58.1854 161.678 55.9251 162.995L43.5628 170.203C43.0574 170.498 42.5199 170.689 41.9753 170.782C34.0045 175.098 23.9907 172.331 19.3923 164.444C15.3977 157.593 16.7781 149.088 22.2456 143.82L25.2015 132.026C25.939 129.084 28.8123 127.631 31.6191 128.783C34.1811 129.834 35.8022 132.69 35.5044 135.419L48.6804 127.737C50.9756 126.398 53.921 127.174 55.2592 129.469Z" fill="#FFA01D"/>
<path fill-rule="evenodd" clip-rule="evenodd" d="M154.215 40.5116C170.35 40.5116 183.43 31.4428 183.43 20.2558C183.43 9.06884 170.35 0 154.215 0C138.08 0 125 9.06884 125 20.2558C125 25.1422 127.496 29.6245 131.651 33.1234C130.895 34.5079 130.465 36.0962 130.465 37.7849C130.465 43.1632 134.825 47.5233 140.203 47.5233C144.726 47.5233 148.528 44.4411 149.624 40.2629C151.12 40.4266 152.653 40.5116 154.215 40.5116ZM131.244 47.1337C131.244 50.791 128.279 53.7558 124.622 53.7558C120.965 53.7558 118 50.791 118 47.1337C118 43.4764 120.965 40.5116 124.622 40.5116C128.279 40.5116 131.244 43.4764 131.244 47.1337Z" fill="#337AFF"/>
</svg>
